<svg width="100" height="110" viewBox="0 0 100 110" fill="none" xmlns="http://www.w3.org/2000/svg">
<path d="M13.0712 23.5528C15.6632 22.0553 18.5856 21.5298 21.4068 21.9743C22.9327 22.218 24.4247 22.7449 25.8259 23.5528L60.7775 43.7307C63.2878 45.1888 65.1578 47.3752 66.1956 49.9527C66.7945 51.4398 67.1151 53.0516 67.1192 54.7353V54.7595V56.4855L73.7046 52.684C73.6139 51.7555 73.4512 50.8424 73.2269 49.9527C71.9738 44.941 68.769 40.6312 64.1297 37.9387L29.174 17.7511C28.3038 17.2492 27.4044 16.8185 26.4913 16.4648C26.1555 16.3263 25.8211 16.2065 25.4867 16.0964C20.288 14.3698 14.6199 14.925 9.72307 17.756C3.63473 21.2716 0 27.5649 0 34.5955V74.9181C0 81.9487 3.63473 88.2468 9.72791 91.7625C12.7693 93.5175 16.1077 94.3975 19.4461 94.3975C20.2257 94.3975 21.0053 94.3497 21.78 94.2493C21.5453 92.8764 21.4255 91.4751 21.4255 90.0503V87.5344C18.5994 87.9837 15.6729 87.4631 13.0712 85.9656C9.07713 83.656 6.69552 79.5283 6.69552 74.9181V34.5955C6.69552 29.9853 9.07713 25.8583 13.0712 23.5528" fill="#269CC8"/>
<path d="M90.2761 22.7974L55.3578 2.63406C49.2701 -0.881595 41.9958 -0.876055 35.9075 2.63891C32.1578 4.80521 29.3407 8.02384 27.729 11.8213C29.0486 12.2997 33.726 14.8585 33.726 14.8585C34.7499 12.1944 36.6635 9.93191 39.2556 8.43509C41.2536 7.28236 43.4442 6.70911 45.6354 6.70911C47.8259 6.70911 50.0165 7.28236 52.0104 8.43509L86.928 28.5943C90.922 30.8991 93.3036 35.0316 93.3036 39.6418C93.3036 44.252 90.922 48.3797 86.928 50.6851L37.9208 78.9744V86.7126L90.276 56.4862C96.3644 52.9712 99.9991 46.6724 99.9991 39.6418C99.9991 32.6112 96.3644 26.3131 90.276 22.7975" fill="#269CC8"/>
<path d="M67.1178 87.3946C67.1178 90.3647 65.5296 93.143 62.9714 94.6496L52.0333 101.097C48.0441 103.402 43.276 103.402 39.2827 101.097C36.6809 99.5949 34.7632 97.3233 33.7399 94.6454C33.1943 93.2102 32.9029 91.6559 32.9029 90.049L32.8835 33.15L26.188 29.2812L26.2067 90.049C26.2067 92.7415 26.7384 95.3246 27.7423 97.6868C29.354 101.499 32.1752 104.727 35.9346 106.898C38.9767 108.653 42.3151 109.528 45.6528 109.528C49.0009 109.528 52.349 108.648 55.4098 106.879L66.3714 100.422C70.963 97.7152 73.8133 92.7221 73.8133 87.3946V71.4877L67.1178 75.3516V87.3946Z" fill="#269CC8"/>
</svg>
