<svg width="20" height="23" viewBox="0 0 20 23" fill="none" xmlns="http://www.w3.org/2000/svg">
<path fill-rule="evenodd" clip-rule="evenodd" d="M13.998 0.323512C14.5136 0.10993 15.0662 5.96047e-08 15.6244 0C16.1825 -5.96046e-08 16.7351 0.10993 17.2508 0.323512C17.7664 0.537095 18.2349 0.850148 18.6296 1.2448C19.0242 1.63944 19.3373 2.10796 19.5508 2.6236C19.7644 3.13923 19.8744 3.69188 19.8744 4.25C19.8744 4.80812 19.7644 5.36077 19.5508 5.8764C19.3376 6.39123 19.0252 6.85909 18.6314 7.25335C18.6308 7.25397 18.6302 7.25459 18.6296 7.2552L7.76778 18.2683C7.29894 18.7372 6.66304 19.0005 6 19.0005C5.33696 19.0005 4.70107 18.7371 4.23223 18.2683C3.76339 17.7995 3.5 17.1636 3.5 16.5005C3.5 15.8386 3.76252 15.2037 4.2299 14.7351L13.3397 5.47405C13.6302 5.17876 14.105 5.17485 14.4003 5.46532C14.6956 5.75579 14.6995 6.23065 14.409 6.52595L5.29291 15.7934C5.10538 15.981 5 16.2353 5 16.5005C5 16.7658 5.10536 17.0201 5.29289 17.2076C5.48043 17.3952 5.73478 17.5005 6 17.5005C6.26448 17.5005 6.51816 17.3958 6.70555 17.2092C6.70607 17.2087 6.70659 17.2082 6.70711 17.2076L17.5653 6.19822L17.5689 6.19454C17.8243 5.93918 18.0268 5.63603 18.165 5.30238C18.3032 4.96873 18.3744 4.61114 18.3744 4.25C18.3744 3.88886 18.3032 3.53127 18.165 3.19762C18.0268 2.86398 17.8243 2.56082 17.5689 2.30546C17.3135 2.05009 17.0104 1.84753 16.6767 1.70933C16.3431 1.57113 15.9855 1.5 15.6244 1.5C15.2632 1.5 14.9056 1.57113 14.572 1.70933C14.2391 1.84722 13.9366 2.04918 13.6816 2.30372L2.81803 13.3186C1.97412 14.1625 1.5 15.3071 1.5 16.5005C1.5 17.694 1.97411 18.8386 2.81802 19.6825C3.66193 20.5264 4.80653 21.0005 6 21.0005C7.19348 21.0005 8.33807 20.5264 9.18198 19.6825L18.1569 10.7193C18.45 10.4266 18.9248 10.4269 19.2175 10.72C19.5102 11.0131 19.5099 11.488 19.2168 11.7807L10.2426 20.7432C9.11742 21.8684 7.5913 22.5005 6 22.5005C4.4087 22.5005 2.88258 21.8684 1.75736 20.7432C0.632141 19.618 0 18.0918 0 16.5005C0 14.9101 0.631418 13.3849 1.75543 12.2598L12.6155 1.24848L12.6192 1.2448C13.0138 0.850148 13.4823 0.537095 13.998 0.323512Z" fill="white"/>
</svg>
